<?xml version="1.0" encoding="UTF-8" standalone="no"?>
<!-- Created with Inkscape (http://www.inkscape.org/) -->

<svg
   xmlns:dc="http://purl.org/dc/elements/1.1/"
   xmlns:cc="http://creativecommons.org/ns#"
   xmlns:rdf="http://www.w3.org/1999/02/22-rdf-syntax-ns#"
   xmlns:svg="http://www.w3.org/2000/svg"
   xmlns="http://www.w3.org/2000/svg"
   xmlns:sodipodi="http://sodipodi.sourceforge.net/DTD/sodipodi-0.dtd"
   xmlns:inkscape="http://www.inkscape.org/namespaces/inkscape"
   width="66.001411"
   height="30.15625"
   id="svg2"
   version="1.1"
   inkscape:version="0.48.2 r9819"
   sodipodi:docname="dbro.svg">
  <defs
     id="defs4" />
  <sodipodi:namedview
     id="base"
     pagecolor="#ffffff"
     bordercolor="#666666"
     borderopacity="1.0"
     inkscape:pageopacity="0"
     inkscape:pageshadow="2"
     inkscape:zoom="8"
     inkscape:cx="42.52548"
     inkscape:cy="15.980348"
     inkscape:document-units="px"
     inkscape:current-layer="layer1"
     showgrid="true"
     inkscape:window-width="1390"
     inkscape:window-height="861"
     inkscape:window-x="0"
     inkscape:window-y="0"
     inkscape:window-maximized="0"
     fit-margin-top="0"
     fit-margin-left="0"
     fit-margin-right="0"
     fit-margin-bottom="0"
     showguides="false"
     inkscape:snap-global="false">
    <inkscape:grid
       type="xygrid"
       id="grid3090"
       empspacing="5"
       visible="true"
       enabled="true"
       snapvisiblegridlinesonly="true" />
  </sodipodi:namedview>
  <metadata
     id="metadata7">
    <rdf:RDF>
      <cc:Work
         rdf:about="">
        <dc:format>image/svg+xml</dc:format>
        <dc:type
           rdf:resource="http://purl.org/dc/dcmitype/StillImage" />
        <dc:title></dc:title>
      </cc:Work>
    </rdf:RDF>
  </metadata>
  <g
     inkscape:label="Layer 1"
     inkscape:groupmode="layer"
     id="layer1"
     transform="translate(-128.94318,-579.67754)">
    <g
       transform="matrix(4.2724684,0,0,3.1183591,-83.896412,-996.0231)"
       style="font-size:40px;font-style:normal;font-variant:normal;font-weight:600;font-stretch:normal;line-height:125%;letter-spacing:0px;word-spacing:0px;fill:#000000;fill-opacity:1;stroke:none;font-family:Adobe Caslon Pro;-inkscape-font-specification:Adobe Caslon Pro Semi-Bold"
       id="flowRoot2987">
      <path
         d="m 51.384722,458.43009 11.688889,0 c 2.088872,3e-5 3.970352,0.41484 5.644445,1.24444 1.674052,0.82966 3.096273,1.95558 4.266666,3.37778 1.18516,1.42225 2.088863,3.08891 2.711111,5 0.63701,1.89631 0.955528,3.91853 0.955556,6.06666 -2.8e-5,2.23706 -0.333361,4.31853 -1,6.24445 -0.666693,1.92593 -1.600026,3.6 -2.8,5.02222 -1.200023,1.40741 -2.629651,2.51852 -4.288889,3.33333 -1.659278,0.8 -3.488905,1.2 -5.488889,1.2 l -11.688889,0 0,-31.48888 m 3.311111,28.44444 7.022223,0 c 1.659244,0 3.192576,-0.28148 4.6,-0.84444 1.407388,-0.57778 2.622201,-1.40741 3.644444,-2.48889 1.0222,-1.09629 1.822199,-2.42962 2.4,-4 0.577753,-1.58518 0.866642,-3.37777 0.866667,-5.37778 -2.5e-5,-2.17776 -0.288914,-4.06665 -0.866667,-5.66667 -0.577801,-1.59997 -1.385208,-2.91849 -2.422222,-3.95555 -1.022243,-1.03701 -2.237056,-1.80738 -3.644445,-2.31111 -1.407423,-0.50368 -2.933348,-0.75553 -4.577777,-0.75556 l -7.022223,0 0,25.4"
         style="font-weight:normal;text-align:start;line-height:125%;writing-mode:lr-tb;text-anchor:start;font-family:Bangla Sangam MN;-inkscape-font-specification:Bangla Sangam MN"
         id="path2996"
         inkscape:connector-curvature="0" />
      <path
         d="m 68.712466,458.43009 12.244444,0 c 1.362947,3e-5 2.585168,0.20003 3.666667,0.6 1.081462,0.38521 1.992572,0.91114 2.733336,1.57777 0.75553,0.6667 1.33331,1.45188 1.73333,2.35556 0.39998,0.88891 0.59998,1.83706 0.6,2.84444 -2e-5,1.51114 -0.38521,2.90373 -1.15556,4.17778 -0.75557,1.27409 -1.933349,2.33335 -3.533328,3.17778 1.199979,0.34076 2.214793,0.7852 3.044448,1.33333 0.84442,0.54817 1.5259,1.16298 2.04444,1.84445 0.51849,0.68149 0.88886,1.42223 1.11111,2.22222 0.23701,0.80001 0.35553,1.62964 0.35556,2.48889 -3e-5,1.21482 -0.25188,2.36297 -0.75556,3.44444 -0.50373,1.06667 -1.1778,2.00741 -2.02222,2.82222 -0.84447,0.80001 -1.822244,1.43704 -2.933334,1.91112 -1.096315,0.45926 -2.244462,0.68888 -3.444444,0.68888 l -31.075961,-0.11453 17.387072,-3.70705 2.256976,-2.21817 4.931909,-10.80786 -7.356068,-11.26597 -17.136298,-3.48983 M 75.99683,471.56 l 4.182302,0.11453 c 0.948133,2e-5 1.814799,-0.14072 2.6,-0.42222 0.785168,-0.29628 1.459241,-0.68887 2.022223,-1.17778 0.562943,-0.48887 0.99998,-1.05924 1.311111,-1.71111 0.325905,-0.66665 0.488868,-1.37035 0.488889,-2.11111 -2.1e-5,-0.68146 -0.118539,-1.31109 -0.355556,-1.88889 -0.222242,-0.59257 -0.57039,-1.09627 -1.044444,-1.51111 -0.474093,-0.4296 -1.0815,-0.76294 -1.822223,-1 -0.725942,-0.25183 -1.592608,-0.37775 -2.6,-0.37778 L 69.393087,461.36 l 4.012401,6.30601 m -1.337467,19.20852 8.933334,0 c 0.844428,0 1.688872,-0.11852 2.533333,-0.35556 0.844426,-0.23703 1.607388,-0.59999 2.288889,-1.08888 0.681461,-0.48889 1.237016,-1.11111 1.666666,-1.86667 0.42961,-0.75555 0.64442,-1.64444 0.64445,-2.66667 -3e-5,-0.84443 -0.19262,-1.64443 -0.57778,-2.4 -0.370394,-0.77036 -0.918542,-1.43702 -1.644447,-2 -0.711131,-0.57776 -1.585204,-1.02961 -2.622222,-1.35555 -1.037054,-0.34073 -2.207423,-0.5111 -3.511112,-0.51111 l -5.955685,-0.11453 -1.755426,12.35897"
         style="font-weight:normal;text-align:start;line-height:125%;writing-mode:lr-tb;text-anchor:start;font-family:Bangla Sangam MN;-inkscape-font-specification:Bangla Sangam MN"
         id="path2998"
         inkscape:connector-curvature="0"
         sodipodi:nodetypes="cccccccccccccccscccccccccscccccccccssccccccscc" />
      <path
         style="font-weight:normal;text-align:start;line-height:125%;writing-mode:lr-tb;text-anchor:start;font-family:Bangla Sangam MN;-inkscape-font-specification:Bangla Sangam MN"
         d="m 97.622204,459.92711 0.250775,1.77098 c 3.744281,-1.31895 6.745981,-0.35148 7.755311,0.17417 1.14123,0.57375 2.12933,1.41235 2.96282,2.51778 0.84629,1.09147 1.50708,2.43212 1.98154,4.0133 0.48725,1.58123 0.73435,3.38028 0.73438,5.39523 -3e-5,2.015 -0.24713,3.81406 -0.73438,5.39525 -0.47446,1.58121 -1.13525,2.91733 -1.98154,4.02276 -0.83349,1.10545 -1.82159,1.95848 -2.96282,2.54618 -1.00933,0.51316 -2.08842,0.78825 -3.24136,0.84241 l 0,2.80174 c 1.7938,-0.0505 3.39887,-0.43007 4.80507,-1.14531 1.5259,-0.76961 2.80413,-1.8469 3.8428,-3.21822 1.03863,-1.38529 1.82914,-3.0284 2.36772,-4.93143 0.55135,-1.91702 0.82298,-4.01852 0.82301,-6.31338 -3e-5,-2.28081 -0.27166,-4.37739 -0.82301,-6.29444 -0.53858,-1.91701 -1.32909,-3.56957 -2.36772,-4.9409 -1.03867,-1.37128 -2.3169,-2.43911 -3.8428,-3.20875 -1.4062,-0.7152 -8.44473,-1.78191 -9.569796,0.57263 z"
         id="path3002"
         inkscape:connector-curvature="0"
         sodipodi:nodetypes="ccccccccccccccccccc" />
      <path
         style="font-weight:normal;text-align:start;line-height:125%;writing-mode:lr-tb;text-anchor:start;font-family:Bangla Sangam MN;-inkscape-font-specification:Bangla Sangam MN"
         d="m 80.655212,458.43107 0,2.92622 11.073809,0.12026 c 1.00739,3e-5 1.87794,0.11895 2.603881,0.37078 0.74072,0.23707 1.347165,0.57253 1.821254,1.00213 0.474061,0.41484 0.816376,0.92065 1.038627,1.51322 0.237011,0.5778 0.358378,1.20254 0.358399,1.884 -2.1e-5,0.74076 -0.164146,1.44785 -0.490056,2.1145 -0.311129,0.65187 -0.746316,1.22477 -1.309255,1.71364 -0.562979,0.48891 -1.23357,0.87621 -2.018739,1.17249 -0.785199,0.2815 -1.65575,0.43094 -2.603881,0.43092 l -9.809485,0.0443 0.250775,2.87181 9.156425,0.0301 c 1.303689,10e-6 2.473802,0.17036 3.510851,0.51109 1.037021,0.32594 1.914694,0.78513 2.625824,1.36289 0.72591,0.56298 1.275321,1.22388 1.645711,1.99424 0.385159,0.75557 0.577797,1.56068 0.577828,2.40511 -5e-6,0.13479 -0.167052,8.05871 -0.341685,8.53242 l 3.924635,0.11453 c -0.0414,0.19838 0.4177,-6.84512 -0.51855,-10.98191 -0.22225,-0.79999 -0.59328,-1.54324 -1.11177,-2.22473 -0.51854,-0.68147 -1.196267,-1.29575 -2.040687,-1.84392 -0.829661,-0.54813 -1.850071,-0.99207 -3.050052,-1.33283 1.599979,-0.84443 2.777223,-1.90266 3.532794,-3.17675 0.770355,-1.27405 1.155635,-2.66774 1.155655,-4.17888 -2e-5,-1.00738 -0.19979,-1.95714 -0.59977,-2.84605 -0.40002,-0.90368 -0.977953,-1.6883 -1.733483,-2.355 -0.740759,-0.66663 -1.646753,-1.18814 -2.728224,-1.57335 -1.081499,-0.39997 -2.308824,-0.60124 -3.671765,-0.60127 z"
         id="path3031"
         inkscape:connector-curvature="0"
         sodipodi:nodetypes="ccccccccscccccccccccccccccccccc" />
      <g
         transform="matrix(0.23405673,0,0,0.32068148,18.794228,321.91668)"
         style="font-weight:normal;fill:#000000;font-family:Sans"
         id="text3068">
        <path
           d="m 132.54185,602.00507 0,-30.15625 6.32813,0 c 3.03384,3e-5 5.42967,0.2995 7.1875,0.89843 1.888,0.58597 3.60024,1.58206 5.13672,2.98828 3.11195,2.83857 4.66794,6.56903 4.66797,11.19141 -3e-5,4.63543 -1.62112,8.38542 -4.86328,11.25 -1.62763,1.43229 -3.33336,2.42839 -5.11719,2.98828 -1.66668,0.5599 -4.02996,0.83985 -7.08985,0.83985 l -6.25,0 m 4.55079,-4.27735 2.05078,0 c 2.04426,10e-6 3.74347,-0.21484 5.09765,-0.64453 1.35415,-0.45572 2.57811,-1.17838 3.67188,-2.16797 2.23956,-2.04426 3.35935,-4.70702 3.35937,-7.98828 -2e-5,-3.30727 -1.10679,-5.98956 -3.32031,-8.04687 -1.9922,-1.83592 -4.9284,-2.75388 -8.80859,-2.75391 l -2.05078,0 0,21.60156"
           style="font-variant:normal;font-weight:500;font-stretch:normal;text-align:start;line-height:125%;writing-mode:lr-tb;text-anchor:start;font-family:Futura;-inkscape-font-specification:Futura Medium;fill:#ffffff"
           id="path3073"
           inkscape:connector-curvature="0" />
        <path
           style="font-variant:normal;font-weight:500;font-stretch:normal;text-align:start;line-height:125%;writing-mode:lr-tb;text-anchor:start;font-family:Futura;-inkscape-font-specification:Futura Medium;fill:#ffffff"
           d="m 146.96875,571.87499 c 2.75893,1.29613 4.49107,2.59226 6,4.15625 l 4.78125,0 c 1.53645,3e-5 2.72395,0.38284 3.53125,1.125 0.80728,0.7292 1.18749,1.7995 1.1875,3.21875 -1e-5,1.45835 -0.39324,2.55731 -1.1875,3.3125 -0.78126,0.74221 -1.99481,1.12502 -3.6875,1.125 l -0.625,0 0,3.78125 1.5,0 c 2.44791,10e-6 4.14321,0.44012 5.09375,1.3125 0.97655,0.88543 1.46874,1.97918 1.46875,3.28125 -1e-5,1.34116 -0.51565,2.47137 -1.53125,3.34375 -0.96356,0.8073 -2.47398,1.18751 -4.53125,1.1875 l -6,0 c -1.64286,1.6503 -2.88393,2.80952 -6,4.28125 l 11.53125,0 c 2.05728,0 3.7578,-0.1849 5.125,-0.5625 1.24999,-0.39062 2.37238,-1.09115 3.375,-2.09375 1.66665,-1.6276 2.49998,-3.61197 2.5,-5.96875 -2e-5,-1.79686 -0.46877,-3.36457 -1.40625,-4.71875 -0.9245,-1.36717 -2.17971,-2.32811 -3.78125,-2.875 1.65363,-1.49738 2.49998,-3.33853 2.5,-5.5 -2e-5,-1.18488 -0.27346,-2.34112 -0.78125,-3.5 -0.49481,-1.14581 -1.15366,-2.10675 -2,-2.875 -0.83335,-0.74216 -1.85157,-1.28122 -3.0625,-1.59375 -1.02208,-0.2666 -12.38076,-0.39834 -14,-0.4375 z"
           id="path3075"
           inkscape:connector-curvature="0"
           sodipodi:nodetypes="cccccccccscccsccscccccccccc" />
        <path
           style="font-variant:normal;font-weight:500;font-stretch:normal;text-align:start;line-height:125%;writing-mode:lr-tb;text-anchor:start;fill:#ffffff;font-family:Futura;-inkscape-font-specification:Futura Medium"
           d="M 30.4375 0.375 C 32.44048 1.35565 33.62202 2.54167 34.375 4.28125 L 38.90625 4.28125 C 43.09895 4.28125 45.21873 5.82033 45.21875 8.90625 C 43.16447 12.97819 38.06674 11.98828 34.0625 13.46875 C 34.156829 13.544432 34.19571 13.586678 34.28125 13.65625 C 35.477425 14.226531 36.467594 15.045424 37.21875 16.15625 C 37.556796 16.644554 37.815098 17.174186 38.03125 17.71875 L 46.71875 30.15625 L 52.28125 30.15625 L 41.9375 16.84375 C 43.9427 16.41408 46.58853 15.91148 47.8125 14.375 C 49.03644 12.83856 49.62498 10.97919 49.625 8.84375 C 49.62498 6.1094 48.67186 3.91669 46.71875 2.25 C 45.85686 1.52122 43.59699 0.97762 41.875 0.71875 C 40.30332 0.48247 32.34808 0.39439 30.4375 0.375 z "
           transform="translate(132.54185,571.84882)"
           id="path3077" />
        <path
           style="font-variant:normal;font-weight:500;font-stretch:normal;text-align:start;line-height:125%;writing-mode:lr-tb;text-anchor:start;fill:#ffffff;font-family:Futura;-inkscape-font-specification:Futura Medium"
           d="m 182.17973,576.19313 c 0.0682,-9.5e-4 0.13445,0 0.20316,0 2.92633,3e-5 6.92182,1.04522 8.90499,3.13556 1.99522,2.07795 3.01824,4.66104 3.01826,7.73437 -2e-5,3.03603 -1.02788,5.58927 -3.04727,7.70451 -2.01945,2.09037 -6.49114,3.13557 -9.42957,3.13557 -0.0289,0 -0.18711,2.3e-4 -0.21591,0 l 2.12891,4.09115 c 0.009,2e-5 0.0192,-2.1e-4 0.0289,0 4.46601,0.0947 7.58673,-1.46078 10.47684,-4.35992 2.87796,-2.8867 4.29518,-6.39802 4.29522,-10.54144 -4e-5,-4.11851 -1.42935,-7.63481 -4.29522,-10.57132 -2.85383,-2.93643 -6.83995,-3.98083 -16.51253,-4.10713 -2.26431,-0.10913 3.00838,-0.0104 4.44422,3.77865 z"
           id="path3079"
           inkscape:connector-curvature="0"
           sodipodi:nodetypes="cccccsccsccccc" />
      </g>
    </g>
  </g>
</svg>
