<?xml version="1.0" encoding="UTF-8" standalone="no"?>
<!-- Generator: Adobe Illustrator 14.0.0, SVG Export Plug-In . SVG Version: 6.00 Build 43363)  -->

<svg
   xmlns:dc="http://purl.org/dc/elements/1.1/"
   xmlns:cc="http://creativecommons.org/ns#"
   xmlns:rdf="http://www.w3.org/1999/02/22-rdf-syntax-ns#"
   xmlns:svg="http://www.w3.org/2000/svg"
   xmlns="http://www.w3.org/2000/svg"
   xmlns:sodipodi="http://sodipodi.sourceforge.net/DTD/sodipodi-0.dtd"
   xmlns:inkscape="http://www.inkscape.org/namespaces/inkscape"
   version="1.0"
   id="Layer_1"
   x="0px"
   y="0px"
   width="90.321px"
   height="100px"
   viewBox="0 0 90.321 100"
   enable-background="new 0 0 90.321 100"
   xml:space="preserve"
   inkscape:version="0.48.2 r9819"
   sodipodi:docname="computers.svg"><metadata
   id="metadata3529"><rdf:RDF><cc:Work
       rdf:about=""><dc:format>image/svg+xml</dc:format><dc:type
         rdf:resource="http://purl.org/dc/dcmitype/StillImage" /><dc:title></dc:title></cc:Work></rdf:RDF></metadata><defs
   id="defs3527" /><sodipodi:namedview
   pagecolor="#ffffff"
   bordercolor="#666666"
   borderopacity="1"
   objecttolerance="10"
   gridtolerance="10"
   guidetolerance="10"
   inkscape:pageopacity="0"
   inkscape:pageshadow="2"
   inkscape:window-width="640"
   inkscape:window-height="480"
   id="namedview3525"
   showgrid="false"
   inkscape:zoom="2.36"
   inkscape:cx="45.1605"
   inkscape:cy="50"
   inkscape:window-x="0"
   inkscape:window-y="0"
   inkscape:window-maximized="0"
   inkscape:current-layer="Layer_1" />
<path
   fill-rule="evenodd"
   clip-rule="evenodd"
   d="M77.6,83.44v-6.752H62.644v-3.862h25.388c0.911,0,1.65-0.747,1.65-1.667V1.669  c0-0.922-0.739-1.669-1.65-1.669H1.97C1.059,0,0.32,0.747,0.32,1.669v69.49c0,0.92,0.739,1.667,1.65,1.667h25.693v3.862H12.72v6.752  L0,92.602V100h90.321v-7.398L77.6,83.44z M6.36,66.249V6.041c0-0.795,0.636-1.44,1.417-1.44h74.127c0.781,0,1.417,0.646,1.417,1.44  v60.208c0,0.796-0.636,1.438-1.417,1.438H7.777C6.996,67.688,6.36,67.045,6.36,66.249z M4.444,92.278l11.458-8.204h58.518  l11.443,8.204H4.444z"
   id="path3523"
   style="fill:#ffffff" />
</svg>