<?xml version="1.0" encoding="UTF-8" standalone="no"?>
<!-- Generator: Adobe Illustrator 15.1.0, SVG Export Plug-In . SVG Version: 6.00 Build 0)  -->

<svg
   xmlns:dc="http://purl.org/dc/elements/1.1/"
   xmlns:cc="http://creativecommons.org/ns#"
   xmlns:rdf="http://www.w3.org/1999/02/22-rdf-syntax-ns#"
   xmlns:svg="http://www.w3.org/2000/svg"
   xmlns="http://www.w3.org/2000/svg"
   xmlns:sodipodi="http://sodipodi.sourceforge.net/DTD/sodipodi-0.dtd"
   xmlns:inkscape="http://www.inkscape.org/namespaces/inkscape"
   version="1.1"
   id="Layer_1"
   x="0px"
   y="0px"
   width="51.856px"
   height="100px"
   viewBox="0 0 51.856 100"
   enable-background="new 0 0 51.856 100"
   xml:space="preserve"
   inkscape:version="0.48.2 r9819"
   sodipodi:docname="science.svg"><metadata
   id="metadata3575"><rdf:RDF><cc:Work
       rdf:about=""><dc:format>image/svg+xml</dc:format><dc:type
         rdf:resource="http://purl.org/dc/dcmitype/StillImage" /><dc:title></dc:title></cc:Work></rdf:RDF></metadata><defs
   id="defs3573" /><sodipodi:namedview
   pagecolor="#ffffff"
   bordercolor="#666666"
   borderopacity="1"
   objecttolerance="10"
   gridtolerance="10"
   guidetolerance="10"
   inkscape:pageopacity="0"
   inkscape:pageshadow="2"
   inkscape:window-width="640"
   inkscape:window-height="480"
   id="namedview3571"
   showgrid="false"
   inkscape:zoom="2.36"
   inkscape:cx="25.927999"
   inkscape:cy="84.751663"
   inkscape:window-x="0"
   inkscape:window-y="0"
   inkscape:window-maximized="0"
   inkscape:current-layer="Layer_1" />
<circle
   cx="33.407"
   cy="2.502"
   r="2.5"
   id="circle3557"
   style="fill:#ffffff" />
<circle
   cx="34.407"
   cy="11.501"
   r="2.5"
   id="circle3559"
   style="fill:#ffffff" />
<circle
   cx="19.907"
   cy="20.001"
   r="3"
   id="circle3561"
   style="fill:#ffffff" />
<circle
   cx="24.907"
   cy="8.001"
   r="3"
   id="circle3563"
   style="fill:#ffffff" />
<circle
   cx="29.407"
   cy="20.501"
   r="4.5"
   id="circle3565"
   style="fill:#ffffff" />
<polygon
   points="27.93,32.004 23.93,32.004 23.93,56.235 8.597,92.002 43.259,92.002 27.93,56.235 "
   id="polygon3567"
   style="fill:#ffffff" />
<path
   d="M50.742,89.162L35.927,54.594V32.476l1.229-2.475h-4.463l-0.766,1.532v23.881l15.21,35.482  c0.785,1.569,0.943,3.008,0.425,3.848c-0.502,0.811-1.793,1.258-3.636,1.258H25.929h-0.001H7.93c-1.842,0-3.133-0.447-3.635-1.258  c-0.519-0.84-0.36-2.278,0.425-3.848l15.21-35.482V31.533l-0.765-1.532h-4.463l1.229,2.475v22.118L1.114,89.162  c-1.403,2.842-1.485,5.64-0.222,7.685c0.89,1.439,2.833,3.155,7.038,3.155h17.998h0.001h17.997c4.205,0,6.148-1.716,7.038-3.155  C52.228,94.802,52.146,92.004,50.742,89.162z"
   id="path3569"
   style="fill:#ffffff" />
</svg>